<svg width="38" height="15" viewBox="0 0 38 15" fill="none" xmlns="http://www.w3.org/2000/svg">
<path d="M3.46667 12.1333C2.68 12.1333 2.30667 11.72 2.30667 10.8933C2.30667 10.04 2.33333 9.06667 2.45333 8.33333H3.41333C2.81333 9.48 2.56 10.3067 2.56 10.7333C2.56 11.12 2.81333 11.2267 3.46667 11.2267C3.90667 11.2267 4.01333 10.96 4.01333 10.6133C4.01333 8.85333 2.24 5.73333 2.24 3.81333C2.24 2.62667 2.94667 2.13333 3.78667 2.13333C4.48 2.13333 4.81333 2.54667 4.81333 3.37333C4.81333 3.88 4.81333 4.89333 4.66667 5.8H3.78667C4.38667 4.34667 4.56 3.86667 4.56 3.50667C4.56 3.14667 4.34667 3.04 3.78667 3.04C3.34667 3.04 3.24 3.30667 3.24 3.65333C3.24 5.16 5.01333 8.94667 5.01333 10.4933C5.01333 11.64 4.30667 12.1333 3.46667 12.1333ZM8.38547 2.26667V3.13333H7.2788V12H6.2788V3.13333H5.17214V2.26667H8.38547ZM10.8704 2.26667H11.8704V10.3333C11.8704 11.64 11.1504 12.1333 10.2837 12.1333C9.3637 12.1333 8.85703 11.72 8.85703 10.5733V2.26667H9.85703V10.12C9.85703 11.08 10.1237 11.2267 10.4437 11.2267C10.7904 11.2267 10.8704 10.9333 10.8704 10.4667V2.26667ZM14.7723 2.26667H15.9723L14.5856 9.30667V12H13.5856V9.29333L12.2656 2.26667H13.3856L13.919 5.96L14.1723 8.32H14.319L14.7723 2.26667ZM20.3954 12H19.3687L19.5421 5.04H19.3954L18.5421 11.3333H18.2354L17.1288 5.04H16.9954L17.3554 12H16.3021L16.4354 2.26667H17.4354L18.5021 8.57333H18.6488L19.4221 2.26667H20.2621L20.3954 12ZM22.7666 6.89333L23.6599 6.81333C24.0599 7.10667 24.2066 7.86667 24.2066 8.78667V10.32C24.2066 11.5333 23.5132 12 22.3266 12H21.1266V2.26667H22.3266C23.3932 2.26667 24.0066 2.73333 24.0066 3.94667V4.86667C24.0066 5.89333 23.4732 6.4 22.7666 6.76V6.89333ZM22.2332 3.17333H22.1266V6.78667L22.3799 6.68C22.8866 6.45333 23.0066 6.13333 23.0066 5.66667V4.28C23.0066 3.41333 22.8066 3.17333 22.2332 3.17333ZM23.2066 9.98667V7.96C23.2066 7.36 22.9666 7.08 22.4999 7.08C22.3532 7.08 22.2332 7.13333 22.1266 7.21333V11.0933H22.2332C22.9532 11.0933 23.2066 10.8533 23.2066 9.98667ZM25.982 2.26667V11.1333H27.422V12H24.982V2.26667H25.982ZM28.9586 7.01333V11.1333H30.3986V12H27.9586V2.26667H30.2653V3.13333H28.9586V6.72H29.9053V7.01333H28.9586Z" fill="#FF3232"/>
<path d="M36 9.5005C36 10.8812 34.8807 12.0005 33.5 12.0005C32.1193 12.0005 31 10.8812 31 9.5005C31 8.11979 32.1193 9.5005 33.5 9.5005C34.8807 9.5005 36 8.11979 36 9.5005Z" fill="#FF3232"/>
<circle cx="32.5" cy="7.5" r="0.5" fill="#FF3232"/>
<circle cx="34.5" cy="7.5" r="0.5" fill="#FF3232"/>
</svg>
